# File created by Blade
# Date/Time:  Mon Sep 22 17:46:01 2014
# Frame Rate: 120.000 fps
#------------------------------------------------------
:FULLY-SPECIFIED
:DEGREES
2691
root 5.423046 37.032862 5.646538 -6.756479 -27.285015 -7.362691
RightUpLeg 5.524081 -29.016541 -25.929311
RightLeg 71.367935 -0.000000 -0.000000
RightFoot -3.816813 -33.227364 17.502376
RightToeBase -4.412842 -0.000000 0.000000
LeftUpLeg 18.948530 9.376530 -1.635271
LeftLeg -4.124655 -0.000000 0.000000
LeftFoot -14.165792 24.937210 -9.870516
LeftToeBase 2.839189 -0.000000 -0.000000
Spine 20.253188 -8.606948 -13.729044
RightShoulder -0.736994 -32.318516 -2.151155
RightArm 16.136018 -17.159783 68.277969
RightForeArm 7.216814 -0.000000 51.861250
RightHand -2.727032 -0.000000 -15.411785
RightHandThumb1 -24.326973 -0.000000 -32.862282
LeftShoulder -13.620016 31.499262 7.168917
LeftArm 57.044160 -24.564391 -68.056512
LeftForeArm 26.983589 -0.000000 97.549612
LeftHand -31.616348 -0.000000 17.697637
LeftHandThumb1 -26.253704 0.000000 33.147579
Head 28.642101 15.632985 21.019896
2692
root 5.430618 37.036339 5.661406 -6.470568 -27.409879 -7.504760
RightUpLeg 5.702224 -29.271627 -26.528244
RightLeg 71.432443 -0.000000 -0.000000
RightFoot -3.918040 -33.428695 17.645535
RightToeBase -4.221475 -0.000000 0.000000
LeftUpLeg 18.734893 9.543649 -1.531922
LeftLeg -4.084440 -0.000000 0.000000
LeftFoot -14.209892 24.894262 -9.863262
LeftToeBase 2.832164 -0.000000 -0.000000
Spine 19.931879 -8.659807 -13.463440
RightShoulder -0.783531 -32.327903 -2.071550
RightArm 16.017995 -16.845516 68.268418
RightForeArm 7.144370 -0.000000 52.065222
RightHand -2.703372 -0.000000 -15.653498
RightHandThumb1 -24.326973 -0.000000 -32.862282
LeftShoulder -13.688603 31.558935 7.113368
LeftArm 56.951199 -24.500535 -68.005136
LeftForeArm 27.044492 -0.000000 97.427817
LeftHand -31.686103 -0.000000 17.789673
LeftHandThumb1 -26.253704 0.000000 33.147579
Head 28.772625 15.670789 20.982757
2693
root 5.438595 37.040183 5.677619 -6.151301 -27.522363 -7.647440
RightUpLeg 5.878250 -29.563660 -27.134945
RightLeg 71.434611 -0.000000 -0.000000
RightFoot -4.023791 -33.720489 17.845928
RightToeBase -4.257971 -0.000000 0.000000
LeftUpLeg 18.493155 9.656019 -1.446933
LeftLeg -4.052650 -0.000000 0.000000
LeftFoot -14.255523 24.861946 -9.871012
LeftToeBase 2.828845 -0.000000 -0.000000
Spine 19.558709 -8.722858 -13.177418
RightShoulder -0.828444 -32.344079 -1.996669
RightArm 15.886447 -16.524403 68.268361
RightForeArm 7.071068 -0.000000 52.250926
RightHand -2.659069 -0.000000 -15.913499
RightHandThumb1 -24.326973 -0.000000 -32.862282
LeftShoulder -13.789620 31.659457 6.999067
LeftArm 56.837493 -24.447403 -67.857452
LeftForeArm 27.048956 0.000000 97.293571
LeftHand -31.519322 -0.000000 18.069607
LeftHandThumb1 -26.253704 0.000000 33.147579
Head 28.928003 15.667404 20.901299
2694
root 5.442172 37.044234 5.695661 -5.845679 -27.661559 -7.813697
RightUpLeg 6.103741 -29.859215 -27.753842
RightLeg 71.370345 -0.000000 -0.000000
RightFoot -3.948976 -34.043797 17.807701
RightToeBase -4.384622 -0.000000 0.000000
LeftUpLeg 18.241975 10.040776 -1.256585
LeftLeg -3.914495 -0.000000 0.000000
LeftFoot -14.326061 24.592486 -9.820662
LeftToeBase 2.790328 -0.000000 -0.000000
Spine 19.196670 -8.742794 -12.868120
RightShoulder -0.835936 -32.355718 -1.948471
RightArm 15.732974 -16.220231 68.278492
RightForeArm 7.127531 -0.000000 52.439254
RightHand -2.576073 -0.000000 -16.295839
RightHandThumb1 -24.326973 -0.000000 -32.862282
LeftShoulder -13.831520 31.686948 6.936117
LeftArm 56.777083 -24.375387 -67.932885
LeftForeArm 27.224055 -0.000000 97.172724
LeftHand -31.738589 -0.000000 18.129405
LeftHandThumb1 -26.253704 0.000000 33.147579
Head 29.088335 15.668360 20.834313
2695
root 5.451583 37.047809 5.711635 -5.513395 -27.825219 -7.952785
RightUpLeg 6.277459 -30.171675 -28.398752
RightLeg 71.271774 -0.000000 -0.000000
RightFoot -4.102920 -34.354245 17.990719
RightToeBase -4.034523 -0.000000 0.000000
LeftUpLeg 18.005777 10.132229 -1.195109
LeftLeg -3.920091 -0.000000 0.000000
LeftFoot -14.359613 24.614281 -9.865044
LeftToeBase 2.817126 -0.000000 -0.000000
Spine 18.788629 -8.714819 -12.560610
RightShoulder -0.867725 -32.365488 -1.889504
RightArm 15.589052 -15.892315 68.306401
RightForeArm 7.154983 -0.000000 52.600397
RightHand -2.524701 -0.000000 -16.764235
RightHandThumb1 -24.326973 -0.000000 -32.862282
LeftShoulder -13.836567 31.701350 6.902261
LeftArm 56.615391 -24.305013 -67.930698
LeftForeArm 27.402200 0.000000 97.102818
LeftHand -31.995025 -0.000000 18.318683
LeftHandThumb1 -26.253704 0.000000 33.147579
Head 29.236265 15.630632 20.758423
2696
root 5.459126 37.050413 5.729718 -5.197023 -28.033166 -8.113569
RightUpLeg 6.486162 -30.470600 -29.045245
RightLeg 71.082040 -0.000000 -0.000000
RightFoot -4.063276 -34.653623 17.970366
RightToeBase -4.124416 -0.000000 0.000000
LeftUpLeg 17.880005 10.015909 -1.171252
LeftLeg -4.096480 -0.000000 0.000000
LeftFoot -14.366496 24.858665 -9.990361
LeftToeBase 2.817897 -0.000000 -0.000000
Spine 18.408514 -8.647516 -12.222814
RightShoulder -0.898663 -32.363692 -1.869540
RightArm 15.463701 -15.589880 68.335713
RightForeArm 7.142585 -0.000000 52.759849
RightHand -2.485480 0.000000 -17.029333
RightHandThumb1 -24.326973 -0.000000 -32.862282
LeftShoulder -13.883634 31.734595 6.834685
LeftArm 56.411107 -24.253532 -67.861705
LeftForeArm 27.435256 -0.000000 97.020502
LeftHand -31.749455 0.000000 18.810871
LeftHandThumb1 -26.253704 0.000000 33.147579
Head 29.354704 15.646602 20.660886
2697
root 5.468759 37.054160 5.742905 -4.871883 -28.266474 -8.274775
RightUpLeg 6.665061 -30.760990 -29.678689
RightLeg 70.847064 -0.000000 -0.000000
RightFoot -4.457915 -34.851176 18.465049
RightToeBase -3.578918 -0.000000 0.000000
LeftUpLeg 17.685604 10.108041 -1.097087
LeftLeg -4.148706 -0.000000 0.000000
LeftFoot -14.405033 24.919103 -10.065308
LeftToeBase 2.777640 -0.000000 -0.000000
Spine 18.032280 -8.543006 -11.892153
RightShoulder -0.905237 -32.370853 -1.852542
RightArm 15.369641 -15.236329 68.381510
RightForeArm 7.067040 -0.000000 52.870836
RightHand -2.477788 -0.000000 -17.209731
RightHandThumb1 -24.326973 -0.000000 -32.862282
LeftShoulder -13.899518 31.754959 6.802551
LeftArm 56.295553 -24.212809 -68.006244
LeftForeArm 27.657979 0.000000 96.979128
LeftHand -31.921163 -0.000000 18.869307
LeftHandThumb1 -26.253704 0.000000 33.147579
Head 29.436658 15.653207 20.595677
